# Blender v2.81 (sub 16) OBJ File: 'road_wide.blend'
# www.blender.org
mtllib outer_corner_wide.mtl
o OuterCorner_Plane.008
v 10.000001 0.210000 10.000000
v -5.566665 0.210000 10.000000
v -5.566665 0.210000 9.000000
v -6.566665 0.210000 10.000000
v -6.566665 0.210000 -5.000000
v -6.066665 0.942011 10.000000
v -6.066665 0.942011 -5.000000
v -6.450209 0.847746 10.000000
v -6.450209 0.847746 -5.000000
v -5.683121 0.847746 -5.000000
v -5.683121 0.847746 10.000000
v -5.179932 0.210000 9.000000
v -5.179932 0.210000 10.000000
v -6.566665 -0.000670 10.000000
v -6.566665 -0.000670 -5.000000
v 10.000000 0.210000 -5.566666
v 9.000000 0.210000 -5.566666
v 10.000000 0.210000 -6.566666
v -5.000000 0.210000 -6.566666
v 10.000000 0.942011 -6.066666
v -5.000000 0.942011 -6.066666
v 10.000000 0.847746 -6.450209
v -5.000000 0.847746 -6.450209
v -5.000000 0.847746 -5.683121
v 10.000000 0.847746 -5.683121
v 9.000000 0.210000 -5.179933
v 10.000000 0.210000 -5.179932
v 10.000000 -0.000670 -6.566666
v -5.000000 -0.000670 -6.566666
v 10.000001 0.000000 10.000000
v -5.179932 0.210000 1.000000
v -5.179932 0.210000 3.000000
v -5.566665 0.210000 3.000000
v -5.566665 0.210000 5.000000
v -5.179932 0.210000 5.000000
v -5.179932 0.210000 7.000000
v -5.566665 0.210000 7.000000
v 7.000000 0.210000 -5.179933
v 7.000000 0.210000 -5.566666
v -5.179932 0.210000 -3.000000
v -5.566665 0.210000 -3.000000
v -5.566665 0.210000 -1.000000
v -5.179932 0.210000 -1.000000
v -5.566665 0.210000 1.000000
v 5.000000 0.210000 -5.179933
v 5.000000 0.210000 -5.566666
v 3.000000 0.210000 -5.179933
v 3.000000 0.210000 -5.566666
v 1.000000 0.210000 -5.179933
v 1.000000 0.210000 -5.566666
v -1.000000 0.210000 -5.179933
v -1.000000 0.210000 -5.566666
v -3.000000 0.210000 -5.179933
v -3.000000 0.210000 -5.566666
v -5.179932 0.210000 -5.000000
v -5.566665 0.210000 -5.000000
v -5.000000 0.210000 -5.179933
v -5.000000 0.210000 -5.566666
vn -1.0000 0.0000 0.0000
vn 0.0000 0.0000 -1.0000
vn -0.7071 0.0000 -0.7071
vn 0.0000 0.0000 1.0000
vn 1.0000 0.0000 0.0000
vn 0.0000 1.0000 0.0000
vn 0.0000 -1.0000 0.0000
vn -0.2387 0.9711 0.0000
vn -0.9837 0.1796 0.0000
vn 0.2387 0.9711 0.0000
vn 0.0000 0.9711 -0.2387
vn 0.0000 0.1796 -0.9837
vn 0.0000 0.9711 0.2387
vn 0.0000 0.1796 0.9837
vn 0.9837 0.1796 0.0000
vn 0.7013 0.1281 0.7013
vn 0.2322 0.9446 0.2322
vn -0.2322 0.9446 -0.2322
vn -0.7013 0.1281 -0.7013
usemtl Road
s off
f 15//1 4//1 5//1
f 18//2 29//2 19//2
f 5//3 29//3 15//3
f 14//4 30//4 13//4
f 28//5 18//5 16//5
f 53//6 57//6 55//6
f 29//7 28//7 30//7
f 30//7 14//7 15//7
f 15//7 29//7 30//7
f 15//1 14//1 4//1
f 18//2 28//2 29//2
f 5//3 19//3 29//3
f 1//4 13//4 30//4
f 13//4 2//4 14//4
f 2//4 4//4 14//4
f 16//5 27//5 28//5
f 27//5 1//5 30//5
f 28//5 27//5 30//5
f 12//6 13//6 1//6
f 1//6 27//6 26//6
f 38//6 45//6 1//6
f 45//6 47//6 1//6
f 1//6 26//6 38//6
f 36//6 12//6 1//6
f 31//6 32//6 47//6
f 32//6 35//6 1//6
f 35//6 36//6 1//6
f 49//6 51//6 43//6
f 51//6 53//6 40//6
f 49//6 43//6 31//6
f 1//6 47//6 32//6
f 47//6 49//6 31//6
f 55//6 40//6 53//6
f 40//6 43//6 51//6
usemtl EdgeRed
f 31//6 42//6 44//6
f 12//6 37//6 3//6
f 35//6 33//6 34//6
f 17//6 38//6 26//6
f 46//6 47//6 45//6
f 50//6 51//6 49//6
f 40//6 56//6 41//6
f 54//6 57//6 53//6
f 31//6 43//6 42//6
f 12//6 36//6 37//6
f 35//6 32//6 33//6
f 17//6 39//6 38//6
f 46//6 48//6 47//6
f 50//6 52//6 51//6
f 40//6 55//6 56//6
f 54//6 58//6 57//6
usemtl Barrier
f 9//8 6//8 7//8
f 5//9 8//9 9//9
f 7//10 11//10 10//10
f 20//11 23//11 21//11
f 22//12 19//12 23//12
f 25//13 21//13 24//13
f 48//14 46//14 25//14
f 44//15 10//15 33//15
f 56//16 24//16 10//16
f 10//17 21//17 7//17
f 9//18 21//18 23//18
f 5//19 23//19 19//19
f 2//4 11//4 6//4
f 20//5 25//5 16//5
f 9//8 8//8 6//8
f 5//9 4//9 8//9
f 7//10 6//10 11//10
f 20//11 22//11 23//11
f 22//12 18//12 19//12
f 25//13 20//13 21//13
f 16//14 25//14 17//14
f 25//14 24//14 48//14
f 17//14 25//14 39//14
f 24//14 58//14 54//14
f 52//14 50//14 24//14
f 50//14 48//14 24//14
f 24//14 54//14 52//14
f 39//14 25//14 46//14
f 11//15 2//15 3//15
f 37//15 34//15 11//15
f 34//15 33//15 11//15
f 11//15 3//15 37//15
f 56//15 10//15 41//15
f 10//15 11//15 33//15
f 41//15 10//15 42//15
f 44//15 42//15 10//15
f 56//16 58//16 24//16
f 10//17 24//17 21//17
f 9//18 7//18 21//18
f 5//19 9//19 23//19
f 6//4 8//4 4//4
f 4//4 2//4 6//4
f 16//5 18//5 20//5
f 18//5 22//5 20//5
usemtl EdgeWhite
f 12//6 2//6 13//6
f 16//6 26//6 27//6
f 32//6 44//6 33//6
f 36//6 34//6 37//6
f 43//6 41//6 42//6
f 39//6 45//6 38//6
f 48//6 49//6 47//6
f 52//6 53//6 51//6
f 56//6 57//6 58//6
f 12//6 3//6 2//6
f 16//6 17//6 26//6
f 32//6 31//6 44//6
f 36//6 35//6 34//6
f 43//6 40//6 41//6
f 39//6 46//6 45//6
f 48//6 50//6 49//6
f 52//6 54//6 53//6
f 56//6 55//6 57//6
