# Blender v2.81 (sub 16) OBJ File: 'pillar.blend'
# www.blender.org
mtllib plane_pillar_bottom.mtl
o PlaneBottom_Plane
v -10.000000 0.000000 10.000000
v 10.000000 0.210000 10.000000
v -10.000000 0.000000 -10.000000
v 10.000000 0.210000 -10.000000
v 10.000000 0.000000 10.000000
v -10.000000 0.210000 10.000000
v 10.000000 0.000000 -10.000000
v -10.000000 0.210000 -10.000000
v 1.000000 5.000000 -1.000000
v 1.000000 0.710000 -1.000000
v 1.000000 5.000000 1.000000
v 1.000000 0.710000 1.000000
v -1.000000 5.000000 -1.000000
v -1.000000 0.710000 -1.000000
v -1.000000 5.000000 1.000000
v -1.000000 0.710000 1.000000
v 1.500000 0.710000 -1.500000
v 1.500000 0.710000 1.500000
v -1.500000 0.710000 -1.500000
v -1.500000 0.710000 1.500000
v 1.500000 0.210000 -1.500000
v 1.500000 0.210000 1.500000
v -1.500000 0.210000 -1.500000
v -1.500000 0.210000 1.500000
vn 0.0000 1.0000 0.0000
vn 0.0000 0.0000 1.0000
vn -1.0000 0.0000 0.0000
vn 1.0000 0.0000 0.0000
vn 0.0000 0.0000 -1.0000
vn 0.0000 -1.0000 0.0000
usemtl Pole
s off
f 13//1 11//1 9//1
f 11//2 16//2 12//2
f 15//3 14//3 16//3
f 9//4 12//4 10//4
f 13//5 10//5 14//5
f 13//1 15//1 11//1
f 11//2 15//2 16//2
f 15//3 13//3 14//3
f 9//4 11//4 12//4
f 13//5 9//5 10//5
usemtl Edge
f 10//1 19//1 14//1
f 20//2 22//2 18//2
f 16//1 18//1 12//1
f 14//1 20//1 16//1
f 12//1 17//1 10//1
f 19//3 24//3 20//3
f 18//4 21//4 17//4
f 17//5 23//5 19//5
f 10//1 17//1 19//1
f 20//2 24//2 22//2
f 16//1 20//1 18//1
f 14//1 19//1 20//1
f 12//1 18//1 17//1
f 19//3 23//3 24//3
f 18//4 22//4 21//4
f 17//5 21//5 23//5
usemtl Road
f 4//4 5//4 7//4
f 8//5 7//5 3//5
f 6//1 4//1 8//1
f 2//2 1//2 5//2
f 7//6 1//6 3//6
f 6//3 3//3 1//3
f 4//4 2//4 5//4
f 8//5 4//5 7//5
f 6//1 2//1 4//1
f 2//2 6//2 1//2
f 7//6 5//6 1//6
f 6//3 8//3 3//3
