# Blender v2.81 (sub 16) OBJ File: 'plane.blend'
# www.blender.org
mtllib plane_slope.mtl
o PlaneSlope_Plane.004
v -10.000000 0.000000 10.000000
v 10.000000 0.210000 10.000000
v -10.000000 10.000000 -10.000000
v 10.000000 10.210000 -10.000000
v 10.000000 0.000000 10.000000
v -10.000000 0.210000 10.000000
v 10.000000 10.000000 -10.000000
v -10.000000 10.210000 -10.000000
vn 1.0000 0.0000 0.0000
vn 0.0000 0.0000 -1.0000
vn 0.0000 0.8944 0.4472
vn 0.0000 0.0000 1.0000
vn 0.0000 -0.8944 -0.4472
vn -1.0000 0.0000 0.0000
usemtl Road
s off
f 7//1 2//1 5//1
f 8//2 7//2 3//2
f 6//3 4//3 8//3
f 2//4 1//4 5//4
f 7//5 1//5 3//5
f 6//6 3//6 1//6
f 7//1 4//1 2//1
f 8//2 4//2 7//2
f 6//3 2//3 4//3
f 2//4 6//4 1//4
f 7//5 5//5 1//5
f 6//6 8//6 3//6
