# Blender v2.81 (sub 16) OBJ File: 'plane.blend'
# www.blender.org
mtllib plane_slope_up.mtl
o PlaneSlopeUp_Plane
v -10.000000 0.000000 10.000000
v 10.000000 0.210000 10.000000
v -10.000000 0.012500 9.000000
v 10.000000 0.222500 9.000000
v 10.000000 0.000000 10.000000
v -10.000000 0.210000 10.000000
v 10.000000 0.012500 9.000000
v -10.000000 0.222500 9.000000
v -10.000000 0.112500 7.000000
v 10.000000 0.322500 7.000000
v 10.000000 0.112500 7.000000
v -10.000000 0.322500 7.000000
v -10.000000 0.312500 5.000000
v 10.000000 0.522500 5.000000
v 10.000000 0.312500 5.000000
v -10.000000 0.522500 5.000000
v -10.000000 0.612500 3.000000
v 10.000000 0.822500 3.000000
v 10.000000 0.612500 3.000000
v -10.000000 0.822500 3.000000
v -10.000000 1.012500 1.000000
v 10.000000 1.222500 1.000000
v 10.000000 1.012500 1.000000
v -10.000000 1.222500 1.000000
v -10.000000 1.512499 -1.000000
v 10.000000 1.722499 -1.000000
v 10.000000 1.512499 -1.000000
v -10.000000 1.722499 -1.000000
v -10.000000 2.112500 -3.000000
v 10.000000 2.322500 -3.000000
v 10.000000 2.112500 -3.000000
v -10.000000 2.322500 -3.000000
v -10.000000 2.812500 -5.000000
v 10.000000 3.022500 -5.000000
v 10.000000 2.812500 -5.000000
v -10.000000 3.022500 -5.000000
v -10.000000 3.612502 -7.000000
v 10.000000 3.822502 -7.000000
v 10.000000 3.612502 -7.000000
v -10.000000 3.822502 -7.000000
v -10.000000 4.512501 -9.000000
v 10.000000 4.722501 -9.000000
v 10.000000 4.512501 -9.000000
v -10.000000 4.722501 -9.000000
v -10.000000 5.000000 -10.000000
v 10.000000 5.210000 -10.000000
v 10.000000 5.000000 -10.000000
v -10.000000 5.210000 -10.000000
vn 1.0000 0.0000 0.0000
vn 0.0000 0.0000 -1.0000
vn 0.0000 0.9999 0.0125
vn 0.0000 0.0000 1.0000
vn 0.0000 -0.9999 -0.0125
vn -1.0000 0.0000 0.0000
vn 0.0000 0.9988 0.0499
vn 0.0000 -0.9988 -0.0499
vn 0.0000 0.9950 0.0995
vn 0.0000 -0.9950 -0.0995
vn 0.0000 0.9889 0.1483
vn 0.0000 -0.9889 -0.1483
vn 0.0000 0.9806 0.1961
vn 0.0000 -0.9806 -0.1961
vn 0.0000 0.9701 0.2425
vn 0.0000 -0.9701 -0.2425
vn 0.0000 0.9578 0.2873
vn 0.0000 -0.9578 -0.2873
vn 0.0000 0.9439 0.3304
vn 0.0000 -0.9439 -0.3304
vn 0.0000 0.9285 0.3714
vn 0.0000 -0.9285 -0.3714
vn 0.0000 0.9119 0.4104
vn 0.0000 -0.9119 -0.4104
vn 0.0000 0.8989 0.4382
vn 0.0000 -0.8989 -0.4382
usemtl Road
s off
f 7//1 2//1 5//1
f 8//2 7//2 3//2
f 6//3 4//3 8//3
f 2//4 1//4 5//4
f 7//5 1//5 3//5
f 6//6 3//6 1//6
f 11//1 4//1 7//1
f 12//2 11//2 9//2
f 8//7 10//7 12//7
f 11//8 3//8 9//8
f 8//6 9//6 3//6
f 15//1 10//1 11//1
f 16//2 15//2 13//2
f 12//9 14//9 16//9
f 15//10 9//10 13//10
f 12//6 13//6 9//6
f 19//1 14//1 15//1
f 20//2 19//2 17//2
f 16//11 18//11 20//11
f 19//12 13//12 17//12
f 16//6 17//6 13//6
f 23//1 18//1 19//1
f 24//2 23//2 21//2
f 20//13 22//13 24//13
f 23//14 17//14 21//14
f 20//6 21//6 17//6
f 27//1 22//1 23//1
f 28//2 27//2 25//2
f 24//15 26//15 28//15
f 27//16 21//16 25//16
f 24//6 25//6 21//6
f 31//1 26//1 27//1
f 32//2 31//2 29//2
f 28//17 30//17 32//17
f 31//18 25//18 29//18
f 28//6 29//6 25//6
f 35//1 30//1 31//1
f 36//2 35//2 33//2
f 32//19 34//19 36//19
f 35//20 29//20 33//20
f 32//6 33//6 29//6
f 39//1 34//1 35//1
f 40//2 39//2 37//2
f 36//21 38//21 40//21
f 39//22 33//22 37//22
f 36//6 37//6 33//6
f 43//1 38//1 39//1
f 44//2 43//2 41//2
f 40//23 42//23 44//23
f 43//24 37//24 41//24
f 40//6 41//6 37//6
f 47//1 42//1 43//1
f 48//2 47//2 45//2
f 44//25 46//25 48//25
f 47//26 41//26 45//26
f 44//6 45//6 41//6
f 7//1 4//1 2//1
f 8//2 4//2 7//2
f 6//3 2//3 4//3
f 2//4 6//4 1//4
f 7//5 5//5 1//5
f 6//6 8//6 3//6
f 11//1 10//1 4//1
f 12//2 10//2 11//2
f 8//7 4//7 10//7
f 11//8 7//8 3//8
f 8//6 12//6 9//6
f 15//1 14//1 10//1
f 16//2 14//2 15//2
f 12//9 10//9 14//9
f 15//10 11//10 9//10
f 12//6 16//6 13//6
f 19//1 18//1 14//1
f 20//2 18//2 19//2
f 16//11 14//11 18//11
f 19//12 15//12 13//12
f 16//6 20//6 17//6
f 23//1 22//1 18//1
f 24//2 22//2 23//2
f 20//13 18//13 22//13
f 23//14 19//14 17//14
f 20//6 24//6 21//6
f 27//1 26//1 22//1
f 28//2 26//2 27//2
f 24//15 22//15 26//15
f 27//16 23//16 21//16
f 24//6 28//6 25//6
f 31//1 30//1 26//1
f 32//2 30//2 31//2
f 28//17 26//17 30//17
f 31//18 27//18 25//18
f 28//6 32//6 29//6
f 35//1 34//1 30//1
f 36//2 34//2 35//2
f 32//19 30//19 34//19
f 35//20 31//20 29//20
f 32//6 36//6 33//6
f 39//1 38//1 34//1
f 40//2 38//2 39//2
f 36//21 34//21 38//21
f 39//22 35//22 33//22
f 36//6 40//6 37//6
f 43//1 42//1 38//1
f 44//2 42//2 43//2
f 40//23 38//23 42//23
f 43//24 39//24 37//24
f 40//6 44//6 41//6
f 47//1 46//1 42//1
f 48//2 46//2 47//2
f 44//25 42//25 46//25
f 47//26 43//26 41//26
f 44//6 48//6 45//6
