# Blender v2.81 (sub 16) OBJ File: 'plane.blend'
# www.blender.org
mtllib plane_wall_corner.mtl
o PlaneWallCorner_Plane.002
v -10.000000 0.000000 10.000000
v -10.000000 1.500000 10.000000
v -10.000000 2.100000 9.500000
v -10.000000 4.100000 9.500000
v -10.000000 4.400000 10.000000
v -10.000000 5.000000 10.000000
v -10.000000 5.000000 9.000000
v -10.000000 0.000000 9.000000
v 0.500000 4.400000 10.000000
v 0.500000 1.500000 10.000000
v -0.500000 4.400000 10.000000
v -0.500000 1.500000 10.000000
v 1.000000 4.100000 9.500000
v 1.000000 2.100000 9.500000
v -1.000000 4.100000 9.500000
v -1.000000 2.100000 9.500000
v 10.000000 0.000000 -10.000000
v 10.000000 1.500000 -10.000000
v 9.500000 2.100000 -10.000000
v 9.500000 4.099999 -10.000000
v 9.500000 2.100000 9.500000
v 10.000000 4.400000 -10.000000
v 10.000000 5.000000 -10.000000
v 9.000000 5.000000 -10.000000
v 9.000000 0.000000 -10.000000
v 10.000000 1.500000 10.000000
v 10.000000 4.400000 -0.500000
v 10.000000 1.500000 -0.500000
v 10.000000 4.400000 0.500000
v 10.000000 1.500000 0.500000
v 9.500000 4.099999 -1.000000
v 9.500000 2.100000 -1.000000
v 9.500000 4.099999 1.000000
v 9.500000 2.100000 1.000000
v 10.000000 0.000000 10.000000
v 9.500000 4.099999 9.500000
v 10.000000 4.400000 10.000000
v 10.000000 5.000000 10.000000
v 9.000000 5.000000 9.000000
v 9.000000 0.000000 9.000000
vn -1.0000 0.0000 0.0000
vn 0.7071 0.0000 0.7071
vn -0.7071 0.0000 0.7071
vn 0.0000 0.0000 1.0000
vn -0.0000 0.0000 -1.0000
vn 0.7071 0.0000 -0.7071
vn 1.0000 0.0000 0.0000
vn 0.0000 1.0000 0.0000
vn 0.0000 -1.0000 0.0000
vn 0.7682 0.6402 0.0000
vn 0.0000 0.6402 0.7682
vn 0.0000 -0.8575 0.5145
vn 0.5145 -0.8575 0.0000
usemtl Barrier
s off
f 5//1 7//1 4//1
f 7//1 3//1 4//1
f 2//1 8//1 1//1
f 9//2 14//2 13//2
f 16//3 11//3 15//3
f 16//4 4//4 3//4
f 19//5 24//5 20//5
f 24//5 22//5 20//5
f 25//5 18//5 17//5
f 27//6 32//6 31//6
f 20//7 32//7 19//7
f 34//2 29//2 33//2
f 30//7 26//7 35//7
f 35//4 10//4 12//4
f 14//4 36//4 13//4
f 36//7 34//7 33//7
f 38//7 29//7 27//7
f 9//4 37//4 38//4
f 6//8 39//8 7//8
f 39//8 23//8 24//8
f 40//9 1//9 8//9
f 17//9 40//9 25//9
f 40//1 24//1 25//1
f 7//5 40//5 8//5
f 5//1 6//1 7//1
f 7//1 8//1 3//1
f 2//1 3//1 8//1
f 9//2 10//2 14//2
f 16//3 12//3 11//3
f 16//4 15//4 4//4
f 19//5 25//5 24//5
f 24//5 23//5 22//5
f 25//5 19//5 18//5
f 27//6 28//6 32//6
f 20//7 31//7 32//7
f 34//2 30//2 29//2
f 35//7 17//7 28//7
f 17//7 18//7 28//7
f 28//7 30//7 35//7
f 2//4 1//4 12//4
f 1//4 35//4 12//4
f 35//4 26//4 10//4
f 14//4 21//4 36//4
f 36//7 21//7 34//7
f 22//7 23//7 27//7
f 23//7 38//7 27//7
f 38//7 37//7 29//7
f 38//4 6//4 11//4
f 6//4 5//4 11//4
f 11//4 9//4 38//4
f 6//8 38//8 39//8
f 39//8 38//8 23//8
f 40//9 35//9 1//9
f 17//9 35//9 40//9
f 40//1 39//1 24//1
f 7//5 39//5 40//5
usemtl BarrierDetail
f 26//10 34//10 21//10
f 10//4 11//4 12//4
f 2//11 16//11 3//11
f 15//12 5//12 4//12
f 32//10 18//10 19//10
f 31//13 22//13 27//13
f 28//7 29//7 30//7
f 10//11 21//11 14//11
f 37//13 33//13 29//13
f 13//12 37//12 9//12
f 26//10 30//10 34//10
f 10//4 9//4 11//4
f 2//11 12//11 16//11
f 15//12 11//12 5//12
f 32//10 28//10 18//10
f 31//13 20//13 22//13
f 28//7 27//7 29//7
f 10//11 26//11 21//11
f 37//13 36//13 33//13
f 13//12 36//12 37//12
