# Blender v2.81 (sub 16) OBJ File: 'pillar.blend'
# www.blender.org
mtllib plane_pillar_short.mtl
o PlaneShort_Plane.001
v -10.000000 0.000000 10.000000
v 10.000000 0.210000 10.000000
v -10.000000 0.000000 -10.000000
v 10.000000 0.210000 -10.000000
v 10.000000 0.000000 10.000000
v -10.000000 0.210000 10.000000
v 10.000000 0.000000 -10.000000
v -10.000000 0.210000 -10.000000
v -1.000000 4.500000 -1.000000
v 1.000000 0.710000 -1.000000
v -1.000000 4.500000 1.000000
v 1.000000 0.710000 1.000000
v 1.000000 4.500000 -1.000000
v -1.000000 0.710000 -1.000000
v 1.000000 4.500000 1.000000
v -1.000000 0.710000 1.000000
v 1.500000 0.710000 -1.500000
v 1.500000 0.710000 1.500000
v -1.500000 0.710000 -1.500000
v -1.500000 0.710000 1.500000
v 1.500000 0.210000 -1.500000
v 1.500000 0.210000 1.500000
v -1.500000 0.210000 -1.500000
v -1.500000 0.210000 1.500000
v -1.500000 5.000000 -1.500000
v -1.500000 5.000000 1.500000
v 1.500000 5.000000 -1.500000
v 1.500000 5.000000 1.500000
v -1.500000 4.500000 -1.500000
v -1.500000 4.500000 1.500000
v 1.500000 4.500000 -1.500000
v 1.500000 4.500000 1.500000
vn -1.0000 0.0000 0.0000
vn 0.0000 0.0000 -1.0000
vn 0.0000 0.0000 1.0000
vn 1.0000 0.0000 0.0000
vn 0.0000 -1.0000 0.0000
vn 0.0000 1.0000 0.0000
usemtl Pole
s off
f 16//1 9//1 14//1
f 14//2 13//2 10//2
f 12//3 11//3 16//3
f 15//4 10//4 13//4
f 16//1 11//1 9//1
f 14//2 9//2 13//2
f 12//3 15//3 11//3
f 15//4 12//4 10//4
usemtl Edge
f 9//5 31//5 13//5
f 29//2 27//2 31//2
f 15//5 30//5 11//5
f 10//6 19//6 14//6
f 11//5 29//5 9//5
f 13//5 32//5 15//5
f 20//3 22//3 18//3
f 16//6 18//6 12//6
f 14//6 20//6 16//6
f 12//6 17//6 10//6
f 19//1 24//1 20//1
f 18//4 21//4 17//4
f 17//2 23//2 19//2
f 31//4 28//4 32//4
f 28//6 25//6 26//6
f 30//1 25//1 29//1
f 32//3 26//3 30//3
f 9//5 29//5 31//5
f 29//2 25//2 27//2
f 15//5 32//5 30//5
f 10//6 17//6 19//6
f 11//5 30//5 29//5
f 13//5 31//5 32//5
f 20//3 24//3 22//3
f 16//6 20//6 18//6
f 14//6 19//6 20//6
f 12//6 18//6 17//6
f 19//1 23//1 24//1
f 18//4 22//4 21//4
f 17//2 21//2 23//2
f 31//4 27//4 28//4
f 28//6 27//6 25//6
f 30//1 26//1 25//1
f 32//3 28//3 26//3
usemtl Road
f 4//4 5//4 7//4
f 8//2 7//2 3//2
f 6//6 4//6 8//6
f 2//3 1//3 5//3
f 7//5 1//5 3//5
f 6//1 3//1 1//1
f 4//4 2//4 5//4
f 8//2 4//2 7//2
f 6//6 2//6 4//6
f 2//3 6//3 1//3
f 7//5 5//5 1//5
f 6//1 8//1 3//1
