# Blender v2.81 (sub 16) OBJ File: 'road_wide.blend'
# www.blender.org
mtllib slope_up_right_wide.mtl
o SlopeUpRight_Plane.014
v 5.566665 0.210000 10.000000
v 5.566665 0.222500 9.000000
v 6.566665 0.210000 10.000000
v 6.566665 0.222500 9.000000
v 6.066665 0.942011 10.000000
v 6.066665 0.954511 9.000000
v 6.450209 0.847746 10.000000
v 6.450209 0.860246 9.000000
v 5.683121 0.860246 9.000000
v 5.683121 0.847746 10.000000
v 5.179932 0.222500 9.000000
v 5.179932 0.210000 10.000000
v 6.566665 -0.000670 10.000000
v 6.566665 0.011830 9.000000
v 5.566665 0.322500 7.000000
v 6.566665 0.322500 7.000000
v 6.066665 1.054511 7.000000
v 6.450209 0.960246 7.000000
v 5.683121 0.960246 7.000000
v 5.179932 0.322500 7.000000
v 6.566665 0.111830 7.000000
v 5.566665 0.522500 5.000000
v 6.566665 0.522500 5.000000
v 6.066665 1.254511 5.000000
v 6.450209 1.160246 5.000000
v 5.683121 1.160246 5.000000
v 5.179932 0.522500 5.000000
v 6.566665 0.311830 5.000000
v 5.566665 0.822500 3.000000
v 6.566665 0.822500 3.000000
v 6.066665 1.554512 3.000000
v 6.450209 1.460246 3.000000
v 5.683121 1.460246 3.000000
v 5.179932 0.822500 3.000000
v 6.566665 0.611830 3.000000
v 5.566665 1.222500 1.000000
v 6.566665 1.222500 1.000000
v 6.066665 1.954511 1.000000
v 6.450209 1.860246 1.000000
v 5.683121 1.860246 1.000000
v 5.179932 1.222500 1.000000
v 6.566665 1.011830 1.000000
v 5.566665 1.722500 -1.000000
v 6.566665 1.722500 -1.000000
v 6.066665 2.454511 -1.000000
v 6.450209 2.360246 -1.000000
v 5.683121 2.360246 -1.000000
v 5.179932 1.722500 -1.000000
v 6.566665 1.511830 -1.000000
v 5.566665 2.322500 -3.000000
v 6.566665 2.322500 -3.000000
v 6.066665 3.054511 -3.000000
v 6.450209 2.960245 -3.000000
v 5.683121 2.960245 -3.000000
v 5.179932 2.322500 -3.000000
v 6.566665 2.111829 -3.000000
v 5.566665 3.022500 -5.000000
v 6.566665 3.022500 -5.000000
v 6.066665 3.754511 -5.000000
v 6.450209 3.660246 -5.000000
v 5.683121 3.660246 -5.000000
v 5.179932 3.022500 -5.000000
v 6.566665 2.811830 -5.000000
v -10.000000 0.012500 9.000000
v -10.000000 0.000000 10.000000
v -10.000000 0.112500 7.000000
v 5.566665 3.822500 -7.000000
v 6.566665 3.822500 -7.000000
v 6.066665 4.554512 -7.000000
v 6.450209 4.460246 -7.000000
v 5.683121 4.460246 -7.000000
v 5.179932 3.822500 -7.000000
v 6.566665 3.611830 -7.000000
v -10.000000 0.312500 5.000000
v -10.000000 0.612500 3.000000
v -10.000000 1.012500 1.000000
v -10.000000 1.512500 -1.000000
v -10.000000 2.112499 -3.000000
v -10.000000 2.812500 -5.000000
v -10.000000 3.612500 -7.000000
v 5.566665 4.722501 -9.000000
v 6.566665 4.722501 -9.000000
v 6.066665 5.454512 -9.000000
v 6.450209 5.360247 -9.000000
v 5.683121 5.360247 -9.000000
v 5.179932 4.722501 -9.000000
v 6.566665 4.511831 -9.000000
v -10.000000 4.512501 -9.000000
v -10.000000 5.000000 -10.000000
v -10.000000 5.210000 -10.000000
v -10.000000 4.722501 -9.000000
v -10.000000 3.822500 -7.000000
v -10.000000 3.022500 -5.000000
v -10.000000 2.322500 -3.000000
v 5.566665 5.210000 -10.000000
v 6.566665 5.210000 -10.000000
v 6.066665 5.942011 -10.000000
v 6.450209 5.847746 -10.000000
v 5.683121 5.847746 -10.000000
v 5.179932 5.210000 -10.000000
v 6.566665 4.999330 -10.000000
v -10.000000 1.722500 -1.000000
v -10.000000 1.222500 1.000000
v -10.000000 0.822500 3.000000
v -10.000000 0.522500 5.000000
v -10.000000 0.322500 7.000000
v -10.000000 0.210000 10.000000
v -10.000000 0.222500 9.000000
vn 1.0000 0.0000 0.0000
vn 0.0000 0.9439 0.3304
vn -0.0000 -0.8989 -0.4382
vn -1.0000 0.0000 0.0000
vn 0.0000 0.0000 -1.0000
vn 0.0000 0.0000 1.0000
vn 0.0000 0.9578 0.2873
vn 0.0000 0.9701 0.2425
vn 0.0000 0.8989 0.4382
vn 0.0000 0.9999 0.0125
vn 0.0000 0.9889 0.1483
vn 0.0000 0.9285 0.3714
vn 0.0000 0.9119 0.4104
vn 0.0000 0.9806 0.1961
vn 0.0000 0.9950 0.0995
vn 0.0000 0.9988 0.0499
vn -0.0000 -0.9999 -0.0125
vn -0.0000 -0.9988 -0.0499
vn -0.0000 -0.9950 -0.0995
vn -0.0000 -0.9889 -0.1483
vn -0.0000 -0.9806 -0.1961
vn -0.0000 -0.9701 -0.2425
vn -0.0000 -0.9578 -0.2873
vn -0.0000 -0.9439 -0.3304
vn -0.0000 -0.9285 -0.3714
vn -0.0000 -0.9119 -0.4104
vn 0.2387 0.9710 0.0121
vn 0.9837 0.1796 0.0022
vn -0.2387 0.9710 0.0121
vn -0.9837 0.1796 0.0022
vn 0.2384 0.9700 0.0485
vn 0.9837 0.1796 0.0090
vn -0.2384 0.9700 0.0485
vn -0.9837 0.1796 0.0090
vn 0.2376 0.9666 0.0967
vn 0.9836 0.1796 0.0180
vn -0.2376 0.9666 0.0967
vn -0.9836 0.1796 0.0180
vn 0.2362 0.9610 0.1441
vn 0.9834 0.1796 0.0269
vn -0.2362 0.9610 0.1441
vn -0.9834 0.1796 0.0269
vn 0.2343 0.9533 0.1907
vn 0.9831 0.1795 0.0359
vn -0.2343 0.9533 0.1907
vn -0.9831 0.1795 0.0359
vn 0.2319 0.9437 0.2359
vn 0.9827 0.1795 0.0449
vn -0.2319 0.9437 0.2359
vn -0.9827 0.1795 0.0449
vn 0.2291 0.9323 0.2797
vn 0.9823 0.1794 0.0538
vn -0.2291 0.9323 0.2797
vn -0.9823 0.1794 0.0538
vn 0.2260 0.9194 0.3218
vn 0.9818 0.1793 0.0627
vn -0.2260 0.9194 0.3218
vn -0.9818 0.1793 0.0627
vn 0.2225 0.9052 0.3621
vn 0.9812 0.1792 0.0717
vn -0.2225 0.9052 0.3621
vn -0.9812 0.1792 0.0717
vn 0.2187 0.8898 0.4004
vn 0.9805 0.1791 0.0806
vn -0.2187 0.8898 0.4004
vn -0.9805 0.1791 0.0806
vn 0.2157 0.8777 0.4279
vn 0.9800 0.1790 0.0872
vn -0.2157 0.8777 0.4279
vn -0.9800 0.1790 0.0872
usemtl Road
s off
f 3//1 14//1 4//1
f 4//1 21//1 16//1
f 16//1 28//1 23//1
f 23//1 35//1 30//1
f 30//1 42//1 37//1
f 37//1 49//1 44//1
f 44//1 56//1 51//1
f 51//1 63//1 58//1
f 58//1 73//1 68//1
f 62//2 94//2 55//2
f 89//3 101//3 87//3
f 106//4 74//4 66//4
f 95//5 96//5 101//5
f 102//4 78//4 77//4
f 13//6 3//6 1//6
f 55//7 102//7 48//7
f 92//4 88//4 80//4
f 68//1 87//1 82//1
f 105//4 75//4 74//4
f 93//4 80//4 79//4
f 108//4 66//4 64//4
f 104//4 76//4 75//4
f 91//4 89//4 88//4
f 103//4 77//4 76//4
f 94//4 79//4 78//4
f 82//1 101//1 96//1
f 48//8 103//8 41//8
f 100//9 91//9 86//9
f 11//10 107//10 12//10
f 34//11 105//11 27//11
f 72//12 93//12 62//12
f 86//13 92//13 72//13
f 41//14 104//14 34//14
f 107//4 64//4 65//4
f 27//15 106//15 20//15
f 20//16 108//16 11//16
f 14//17 13//17 65//17
f 64//18 66//18 21//18
f 66//19 74//19 21//19
f 14//17 65//17 64//17
f 35//20 28//20 74//20
f 28//19 21//19 74//19
f 21//18 14//18 64//18
f 74//20 75//20 35//20
f 75//21 76//21 35//21
f 49//22 42//22 76//22
f 42//21 35//21 76//21
f 76//22 77//22 49//22
f 77//23 78//23 49//23
f 63//24 56//24 78//24
f 56//23 49//23 78//23
f 78//24 79//24 63//24
f 79//25 80//25 63//25
f 87//26 73//26 80//26
f 73//25 63//25 80//25
f 80//26 88//26 87//26
f 88//3 89//3 87//3
f 3//1 13//1 14//1
f 4//1 14//1 21//1
f 16//1 21//1 28//1
f 23//1 28//1 35//1
f 30//1 35//1 42//1
f 37//1 42//1 49//1
f 44//1 49//1 56//1
f 51//1 56//1 63//1
f 58//1 63//1 73//1
f 62//2 93//2 94//2
f 106//4 105//4 74//4
f 101//5 89//5 100//5
f 89//5 90//5 100//5
f 100//5 95//5 101//5
f 102//4 94//4 78//4
f 1//6 12//6 13//6
f 12//6 107//6 65//6
f 13//6 12//6 65//6
f 55//7 94//7 102//7
f 92//4 91//4 88//4
f 68//1 73//1 87//1
f 105//4 104//4 75//4
f 93//4 92//4 80//4
f 108//4 106//4 66//4
f 104//4 103//4 76//4
f 91//4 90//4 89//4
f 103//4 102//4 77//4
f 94//4 93//4 79//4
f 82//1 87//1 101//1
f 48//8 102//8 103//8
f 100//9 90//9 91//9
f 11//10 108//10 107//10
f 34//11 104//11 105//11
f 72//12 92//12 93//12
f 86//13 91//13 92//13
f 41//14 103//14 104//14
f 107//4 108//4 64//4
f 27//15 105//15 106//15
f 20//16 106//16 108//16
usemtl EdgeRed
f 2//16 20//16 11//16
f 22//11 34//11 27//11
f 36//8 48//8 41//8
f 50//2 62//2 55//2
f 67//13 86//13 72//13
f 2//16 15//16 20//16
f 22//11 29//11 34//11
f 36//8 43//8 48//8
f 50//2 57//2 62//2
f 67//13 81//13 86//13
usemtl Barrier
f 5//27 8//27 6//27
f 7//28 4//28 8//28
f 9//29 5//29 6//29
f 2//30 10//30 9//30
f 6//31 18//31 17//31
f 8//32 16//32 18//32
f 19//33 6//33 17//33
f 15//34 9//34 19//34
f 17//35 25//35 24//35
f 18//36 23//36 25//36
f 26//37 17//37 24//37
f 22//38 19//38 26//38
f 24//39 32//39 31//39
f 25//40 30//40 32//40
f 33//41 24//41 31//41
f 29//42 26//42 33//42
f 31//43 39//43 38//43
f 32//44 37//44 39//44
f 40//45 31//45 38//45
f 36//46 33//46 40//46
f 38//47 46//47 45//47
f 39//48 44//48 46//48
f 47//49 38//49 45//49
f 43//50 40//50 47//50
f 45//51 53//51 52//51
f 46//52 51//52 53//52
f 54//53 45//53 52//53
f 50//54 47//54 54//54
f 52//55 60//55 59//55
f 53//56 58//56 60//56
f 61//57 52//57 59//57
f 57//58 54//58 61//58
f 59//59 70//59 69//59
f 60//60 68//60 70//60
f 71//61 59//61 69//61
f 67//62 61//62 71//62
f 69//63 84//63 83//63
f 70//64 82//64 84//64
f 85//65 69//65 83//65
f 81//66 71//66 85//66
f 83//67 98//67 97//67
f 84//68 96//68 98//68
f 99//69 83//69 97//69
f 95//70 85//70 99//70
f 5//6 1//6 3//6
f 97//5 96//5 95//5
f 5//27 7//27 8//27
f 7//28 3//28 4//28
f 9//29 10//29 5//29
f 2//30 1//30 10//30
f 6//31 8//31 18//31
f 8//32 4//32 16//32
f 19//33 9//33 6//33
f 15//34 2//34 9//34
f 17//35 18//35 25//35
f 18//36 16//36 23//36
f 26//37 19//37 17//37
f 22//38 15//38 19//38
f 24//39 25//39 32//39
f 25//40 23//40 30//40
f 33//41 26//41 24//41
f 29//42 22//42 26//42
f 31//43 32//43 39//43
f 32//44 30//44 37//44
f 40//45 33//45 31//45
f 36//46 29//46 33//46
f 38//47 39//47 46//47
f 39//48 37//48 44//48
f 47//49 40//49 38//49
f 43//50 36//50 40//50
f 45//51 46//51 53//51
f 46//52 44//52 51//52
f 54//53 47//53 45//53
f 50//54 43//54 47//54
f 52//55 53//55 60//55
f 53//56 51//56 58//56
f 61//57 54//57 52//57
f 57//58 50//58 54//58
f 59//59 60//59 70//59
f 60//60 58//60 68//60
f 71//61 61//61 59//61
f 67//62 57//62 61//62
f 69//63 70//63 84//63
f 70//64 68//64 82//64
f 85//65 71//65 69//65
f 81//66 67//66 71//66
f 83//67 84//67 98//67
f 84//68 82//68 96//68
f 99//69 85//69 83//69
f 95//70 81//70 85//70
f 3//6 7//6 5//6
f 5//6 10//6 1//6
f 95//5 99//5 97//5
f 97//5 98//5 96//5
usemtl EdgeWhite
f 1//10 11//10 12//10
f 15//15 27//15 20//15
f 29//14 41//14 34//14
f 43//7 55//7 48//7
f 57//12 72//12 62//12
f 81//9 100//9 86//9
f 1//10 2//10 11//10
f 15//15 22//15 27//15
f 29//14 36//14 41//14
f 43//7 50//7 55//7
f 57//12 67//12 72//12
f 81//9 95//9 100//9
