# Blender v2.81 (sub 16) OBJ File: 'road_wide.blend'
# www.blender.org
mtllib slope_left_wide.mtl
o SlopeLeft_Plane.007
v -5.566665 0.210000 10.000000
v -5.566665 0.710000 9.000000
v -6.566665 0.210000 10.000000
v -6.066665 0.942011 10.000000
v -6.450209 0.847746 10.000000
v -5.683121 0.847746 10.000000
v -5.179932 0.710000 9.000000
v -5.179932 0.210000 10.000000
v -6.566665 -0.000670 10.000000
v -5.566665 1.710000 7.000000
v -5.179932 1.710000 7.000000
v -5.566665 2.710000 5.000000
v -5.179932 2.710000 5.000000
v -5.566665 3.710001 3.000000
v -5.179932 3.710001 3.000000
v -5.566665 4.709999 1.000000
v -5.179932 4.709999 1.000000
v -5.566665 5.710000 -1.000000
v -5.179932 5.710000 -1.000000
v -5.566665 6.710001 -3.000000
v -5.179932 6.710001 -3.000000
v -5.566665 7.710000 -5.000000
v -5.179932 7.710000 -5.000000
v -5.566665 8.710000 -7.000000
v -5.179932 8.710000 -7.000000
v -5.566665 9.710001 -9.000000
v -5.179932 9.710001 -9.000000
v -5.566665 10.210000 -10.000000
v -6.566665 10.210000 -10.000000
v -6.066665 10.942011 -10.000000
v -6.450209 10.847746 -10.000000
v -5.683121 10.847746 -10.000000
v -5.179932 10.210000 -10.000000
v -6.566665 9.999330 -10.000000
v 10.000000 0.210000 10.000000
v 10.000000 -0.000670 10.000000
v 10.000000 10.210000 -10.000000
v 10.000000 9.999330 -10.000000
vn -1.0000 0.0000 0.0000
vn 1.0000 0.0000 0.0000
vn 0.0000 0.8944 0.4472
vn 0.0000 -0.8944 -0.4472
vn 0.0000 0.0000 1.0000
vn 0.0000 0.0000 -1.0000
vn -0.9798 0.1789 0.0895
vn -0.2147 0.8736 0.4368
vn 0.2147 0.8736 0.4368
vn 0.9798 0.1789 0.0895
usemtl Road
s off
f 3//1 34//1 9//1
f 38//2 35//2 36//2
f 37//3 21//3 19//3
f 38//4 9//4 34//4
f 9//5 36//5 8//5
f 34//6 29//6 28//6
f 3//1 29//1 34//1
f 38//2 37//2 35//2
f 11//3 7//3 35//3
f 7//3 8//3 35//3
f 35//3 37//3 17//3
f 11//3 35//3 13//3
f 37//3 33//3 27//3
f 25//3 23//3 37//3
f 23//3 21//3 37//3
f 37//3 27//3 25//3
f 13//3 35//3 15//3
f 17//3 15//3 35//3
f 19//3 17//3 37//3
f 38//4 36//4 9//4
f 35//5 8//5 36//5
f 8//5 1//5 9//5
f 1//5 3//5 9//5
f 28//6 33//6 34//6
f 33//6 37//6 38//6
f 34//6 33//6 38//6
usemtl EdgeRed
f 11//3 2//3 7//3
f 15//3 12//3 13//3
f 19//3 16//3 17//3
f 23//3 20//3 21//3
f 27//3 24//3 25//3
f 11//3 10//3 2//3
f 15//3 14//3 12//3
f 19//3 18//3 16//3
f 23//3 22//3 20//3
f 27//3 26//3 24//3
usemtl Barrier
f 1//5 6//5 4//5
f 5//7 29//7 3//7
f 4//8 31//8 5//8
f 32//9 4//9 6//9
f 20//10 22//10 32//10
f 29//6 31//6 30//6
f 4//5 5//5 3//5
f 3//5 1//5 4//5
f 5//7 31//7 29//7
f 4//8 30//8 31//8
f 32//9 30//9 4//9
f 6//10 1//10 2//10
f 2//10 10//10 6//10
f 10//10 12//10 6//10
f 14//10 16//10 6//10
f 16//10 18//10 6//10
f 12//10 14//10 6//10
f 32//10 6//10 18//10
f 26//10 28//10 32//10
f 22//10 24//10 32//10
f 24//10 26//10 32//10
f 18//10 20//10 32//10
f 30//6 32//6 28//6
f 28//6 29//6 30//6
usemtl EdgeWhite
f 7//3 1//3 8//3
f 13//3 10//3 11//3
f 17//3 14//3 15//3
f 21//3 18//3 19//3
f 25//3 22//3 23//3
f 33//3 26//3 27//3
f 7//3 2//3 1//3
f 13//3 12//3 10//3
f 17//3 16//3 14//3
f 21//3 20//3 18//3
f 25//3 24//3 22//3
f 33//3 28//3 26//3
