# Blender v2.81 (sub 16) OBJ File: 'road.blend'
# www.blender.org
mtllib start.mtl
o Start_Plane.002
v 5.566665 0.210000 10.000000
v 5.566665 0.210000 9.000000
v 6.566665 0.210000 10.000000
v 6.066665 0.942011 10.000000
v 6.450209 0.847746 10.000000
v 5.683121 0.847746 10.000000
v 5.179932 0.210000 9.000000
v 5.179932 0.210000 10.000000
v 6.566665 -0.000670 10.000000
v 5.566665 0.210000 7.000000
v 5.179932 0.210000 7.000000
v 5.566665 0.210000 5.000000
v 5.179932 0.210000 5.000000
v 5.566665 0.210000 3.000000
v 5.179932 0.210000 3.000000
v 5.566665 0.210000 1.000000
v 5.179932 0.210000 1.000000
v 5.566665 0.210000 -1.000000
v 5.179932 0.210000 -1.000000
v 5.566665 0.210000 -3.000000
v 5.179932 0.210000 -3.000000
v 5.566665 0.210000 -5.000000
v 5.179932 0.210000 -5.000000
v 5.566665 0.210000 -7.000000
v 5.179932 0.210000 -7.000000
v 5.566665 0.210000 -9.000000
v 5.179932 0.210000 -9.000000
v 5.566665 0.210000 -10.000000
v 6.566665 0.210000 -10.000000
v 6.066665 0.942011 -10.000000
v 6.450209 0.847746 -10.000000
v 5.683121 0.847746 -10.000000
v 5.179932 0.210000 -10.000000
v 6.566665 -0.000670 -10.000000
v -5.566665 0.210000 10.000000
v -5.566665 0.210000 9.000000
v -6.566665 0.210000 10.000000
v -6.066665 0.942011 10.000000
v -6.450209 0.847746 10.000000
v -5.683121 0.847746 10.000000
v -5.179932 0.210000 9.000000
v -5.179932 0.210000 10.000000
v -6.566665 -0.000670 10.000000
v -5.566665 0.210000 7.000000
v -5.179932 0.210000 7.000000
v -5.566665 0.210000 5.000000
v -5.179932 0.210000 5.000000
v -5.566665 0.210000 3.000000
v -5.179932 0.210000 3.000000
v -5.566665 0.210000 1.000000
v -5.179932 0.210000 1.000000
v -5.566665 0.210000 -1.000000
v -5.179932 0.210000 -1.000000
v -5.566665 0.210000 -3.000000
v -5.179932 0.210000 -3.000000
v -5.566665 0.210000 -5.000000
v -5.179932 0.210000 -5.000000
v -5.566665 0.210000 -7.000000
v -5.179932 0.210000 -7.000000
v -5.566665 0.210000 -9.000000
v -5.179932 0.210000 -9.000000
v -5.566665 0.210000 -10.000000
v -6.566665 0.210000 -10.000000
v -6.066665 0.942011 -10.000000
v -6.450209 0.847746 -10.000000
v -5.683121 0.847746 -10.000000
v -5.179932 0.210000 -10.000000
v -6.566665 -0.000670 -10.000000
v -5.179932 0.210000 -3.500000
v 5.179932 0.210000 -3.500000
v -1.000000 0.300000 1.143988
v -1.000000 0.300000 -2.500000
v 1.000000 0.300000 1.143988
v 1.000000 0.300000 -2.500000
v -1.000000 0.210000 -3.000000
v 1.000000 0.210000 -3.000000
v -1.000000 0.210000 -3.500000
v 1.000000 0.210000 -3.500000
v -1.000000 0.200000 1.143988
v -1.000000 0.200000 -2.500000
v 1.000000 0.200000 1.143988
v 1.000000 0.200000 -2.500000
vn 1.0000 0.0000 0.0000
vn -1.0000 0.0000 0.0000
vn 0.0000 -1.0000 0.0000
vn 0.0000 0.0000 1.0000
vn 0.0000 0.0000 -1.0000
vn 0.0000 1.0000 0.0000
vn 0.9837 0.1796 0.0000
vn 0.2387 0.9711 0.0000
vn -0.2387 0.9711 0.0000
vn -0.9837 0.1796 0.0000
vn 0.0000 0.9842 -0.1772
usemtl Road
s off
f 34//1 3//1 9//1
f 37//2 68//2 43//2
f 9//3 68//3 34//3
f 8//4 42//4 43//4
f 62//5 67//5 68//5
f 57//6 69//6 77//6
f 75//6 49//6 76//6
f 72//4 82//4 74//4
f 34//1 29//1 3//1
f 37//2 63//2 68//2
f 9//3 43//3 68//3
f 3//4 1//4 9//4
f 1//4 8//4 9//4
f 42//4 35//4 43//4
f 35//4 37//4 43//4
f 9//4 8//4 43//4
f 67//5 33//5 34//5
f 33//5 28//5 34//5
f 28//5 29//5 34//5
f 34//5 68//5 67//5
f 68//5 63//5 62//5
f 70//6 23//6 78//6
f 23//6 25//6 78//6
f 27//6 33//6 67//6
f 25//6 27//6 78//6
f 27//6 67//6 61//6
f 61//6 59//6 77//6
f 59//6 57//6 77//6
f 61//6 77//6 27//6
f 77//6 78//6 27//6
f 42//6 8//6 7//6
f 11//6 13//6 45//6
f 13//6 15//6 47//6
f 11//6 45//6 41//6
f 42//6 7//6 41//6
f 7//6 11//6 41//6
f 51//6 49//6 75//6
f 49//6 47//6 15//6
f 49//6 15//6 76//6
f 47//6 45//6 13//6
f 17//6 19//6 76//6
f 19//6 21//6 76//6
f 17//6 76//6 15//6
f 75//6 55//6 53//6
f 53//6 51//6 75//6
f 72//4 80//4 82//4
usemtl EdgeRed
f 2//6 11//6 7//6
f 12//6 15//6 13//6
f 16//6 19//6 17//6
f 24//6 27//6 25//6
f 45//6 36//6 41//6
f 49//6 46//6 47//6
f 53//6 50//6 51//6
f 22//6 23//6 70//6
f 61//6 58//6 59//6
f 69//6 56//6 54//6
f 2//6 10//6 11//6
f 12//6 14//6 15//6
f 16//6 18//6 19//6
f 24//6 26//6 27//6
f 45//6 44//6 36//6
f 49//6 48//6 46//6
f 53//6 52//6 50//6
f 70//6 21//6 20//6
f 20//6 22//6 70//6
f 61//6 60//6 58//6
f 54//6 55//6 69//6
f 69//6 57//6 56//6
usemtl Barrier
f 4//4 1//4 3//4
f 3//7 31//7 5//7
f 5//8 30//8 4//8
f 4//9 32//9 6//9
f 18//10 16//10 6//10
f 30//5 29//5 28//5
f 35//4 40//4 38//4
f 65//10 37//10 39//10
f 64//9 39//9 38//9
f 66//8 38//8 40//8
f 40//7 48//7 50//7
f 63//5 65//5 64//5
f 3//4 5//4 4//4
f 4//4 6//4 1//4
f 3//7 29//7 31//7
f 5//8 31//8 30//8
f 4//9 30//9 32//9
f 2//10 1//10 6//10
f 6//10 32//10 18//10
f 32//10 28//10 26//10
f 26//10 24//10 32//10
f 24//10 22//10 32//10
f 32//10 22//10 20//10
f 10//10 2//10 6//10
f 16//10 14//10 6//10
f 14//10 12//10 6//10
f 12//10 10//10 6//10
f 20//10 18//10 32//10
f 28//5 32//5 30//5
f 30//5 31//5 29//5
f 38//4 39//4 37//4
f 37//4 35//4 38//4
f 65//10 63//10 37//10
f 64//9 65//9 39//9
f 66//8 64//8 38//8
f 40//7 35//7 36//7
f 44//7 46//7 40//7
f 46//7 48//7 40//7
f 40//7 36//7 44//7
f 62//7 66//7 60//7
f 66//7 40//7 52//7
f 60//7 66//7 58//7
f 56//7 58//7 66//7
f 56//7 66//7 54//7
f 50//7 52//7 40//7
f 52//7 54//7 66//7
f 64//5 66//5 62//5
f 62//5 63//5 64//5
usemtl EdgeWhite
f 1//6 7//6 8//6
f 10//6 13//6 11//6
f 14//6 17//6 15//6
f 18//6 21//6 19//6
f 22//6 25//6 23//6
f 26//6 33//6 27//6
f 41//6 35//6 42//6
f 47//6 44//6 45//6
f 51//6 48//6 49//6
f 55//6 52//6 53//6
f 59//6 56//6 57//6
f 67//6 60//6 61//6
f 1//6 2//6 7//6
f 10//6 12//6 13//6
f 14//6 16//6 17//6
f 18//6 20//6 21//6
f 22//6 24//6 25//6
f 26//6 28//6 33//6
f 41//6 36//6 35//6
f 47//6 46//6 44//6
f 51//6 50//6 48//6
f 55//6 54//6 52//6
f 59//6 58//6 56//6
f 67//6 62//6 60//6
usemtl StartLine
f 75//6 76//6 78//6
f 81//1 74//1 73//1
f 80//2 71//2 72//2
f 79//4 73//4 71//4
f 80//2 72//2 75//2
f 82//1 76//1 74//1
f 76//6 21//6 70//6
f 78//6 77//6 75//6
f 77//6 69//6 75//6
f 76//6 70//6 78//6
f 69//6 55//6 75//6
f 81//1 82//1 74//1
f 80//2 79//2 71//2
f 79//4 81//4 73//4
usemtl StartPlatform
f 76//11 72//11 74//11
f 74//6 71//6 73//6
f 76//11 75//11 72//11
f 74//6 72//6 71//6
