# Blender v2.81 (sub 16) OBJ File: 'road_wide.blend'
# www.blender.org
mtllib to_wide_right.mtl
o ToWideRight_Plane.013
v -5.566665 0.210000 10.000000
v -5.566665 0.210000 9.000000
v -6.566665 0.210000 10.000000
v -6.066665 0.942011 10.000000
v -6.450209 0.847746 10.000000
v -5.683121 0.847746 10.000000
v -5.179932 0.210000 9.000000
v -5.179932 0.210000 10.000000
v -6.566665 -0.000670 10.000000
v -10.000001 0.210000 5.566664
v -9.000000 0.210000 5.566664
v -10.000001 0.210000 6.566664
v -10.000001 0.942011 6.066664
v -10.000000 0.847746 6.450208
v -10.000000 0.847746 5.683120
v -9.000000 0.210000 5.179932
v -10.000000 0.210000 5.179931
v -10.000001 -0.000670 6.566664
v -5.566665 0.210000 7.000000
v -6.566665 0.210000 7.000000
v -6.066665 0.942011 7.000000
v -6.450209 0.847746 7.000000
v -5.683121 0.847746 7.000000
v -5.179932 0.210000 7.000000
v -6.566665 -0.000670 7.000000
v -7.000000 0.210000 5.566664
v -7.000000 0.210000 6.566664
v -7.000000 0.942011 6.066664
v -7.000000 0.847746 6.450208
v -7.000000 0.847746 5.683120
v -7.000000 0.210000 5.179932
v -7.000000 -0.000670 6.566664
v 5.566664 0.210000 -10.000002
v 5.566664 0.210000 -9.000002
v 6.566664 0.210000 -10.000002
v 6.066664 0.942011 -10.000002
v 6.450208 0.847746 -10.000002
v 5.683120 0.847746 -10.000002
v 5.179932 0.210000 -9.000002
v 5.179931 0.210000 -10.000002
v 6.566664 -0.000670 -10.000002
v 5.566665 0.210000 -7.000002
v 5.179933 0.210000 -7.000002
v 5.566666 0.210000 -5.000002
v 5.179933 0.210000 -5.000002
v 5.566666 0.210000 -3.000002
v 5.179934 0.210000 -3.000002
v 5.566667 0.210000 -1.000002
v 5.179935 0.210000 -1.000002
v 5.566668 0.210000 0.999998
v 5.179935 0.210000 0.999998
v 5.566669 0.210000 2.999998
v 5.179936 0.210000 2.999998
v 5.566669 0.210000 4.999998
v 5.179936 0.210000 4.999998
v 5.566669 0.210000 6.999998
v 5.179937 0.210000 6.999998
v 5.566670 0.210000 8.999998
v 5.179938 0.210000 8.999998
v 5.566670 0.210000 9.999998
v 6.566670 0.210000 9.999998
v 6.066670 0.942011 9.999998
v 6.450214 0.847746 9.999998
v 5.683126 0.847746 9.999998
v 5.179938 0.210000 9.999998
v 6.566670 -0.000670 9.999998
v -10.000000 0.000000 -10.000002
v -10.000000 0.210000 -10.000002
vn 0.0000 0.0000 1.0000
vn -1.0000 0.0000 0.0000
vn -0.7071 0.0000 0.7071
vn 1.0000 0.0000 -0.0000
vn 0.0000 0.0000 -1.0000
vn 0.0000 1.0000 0.0000
vn 0.0000 -1.0000 -0.0000
vn -0.9837 0.1796 0.0000
vn 0.0000 0.9711 0.2387
vn -0.2387 0.9711 0.0000
vn 0.0000 0.9711 -0.2387
vn 0.0000 0.1796 -0.9837
vn 0.9837 0.1796 0.0000
vn 0.2387 0.9711 0.0000
vn 0.0000 0.1796 0.9837
vn -0.7013 0.1281 0.7013
vn -0.2322 0.9446 0.2322
vn 0.2322 0.9446 -0.2322
vn 0.7013 0.1281 -0.7013
usemtl Road
s off
f 18//1 27//1 12//1
f 20//2 9//2 3//2
f 27//3 25//3 20//3
f 35//4 66//4 41//4
f 41//5 67//5 40//5
f 10//2 17//2 18//2
f 60//1 65//1 66//1
f 59//6 57//6 24//6
f 45//6 31//6 47//6
f 31//6 40//6 68//6
f 32//7 18//7 67//7
f 32//7 41//7 25//7
f 25//7 66//7 9//7
f 18//1 32//1 27//1
f 20//2 25//2 9//2
f 27//3 32//3 25//3
f 35//4 61//4 66//4
f 68//5 40//5 67//5
f 40//5 33//5 41//5
f 33//5 35//5 41//5
f 17//2 68//2 67//2
f 67//2 18//2 17//2
f 18//2 12//2 10//2
f 65//1 8//1 9//1
f 8//1 1//1 9//1
f 1//1 3//1 9//1
f 9//1 66//1 65//1
f 66//1 61//1 60//1
f 24//6 7//6 59//6
f 7//6 8//6 59//6
f 8//6 65//6 59//6
f 40//6 31//6 39//6
f 31//6 24//6 51//6
f 39//6 31//6 43//6
f 24//6 57//6 55//6
f 55//6 53//6 24//6
f 53//6 51//6 24//6
f 51//6 49//6 31//6
f 49//6 47//6 31//6
f 45//6 43//6 31//6
f 68//6 17//6 16//6
f 16//6 31//6 68//6
f 32//7 67//7 41//7
f 25//7 41//7 66//7
usemtl EdgeRed
f 24//6 2//6 7//6
f 26//6 16//6 11//6
f 43//6 34//6 39//6
f 47//6 44//6 45//6
f 51//6 48//6 49//6
f 55//6 52//6 53//6
f 59//6 56//6 57//6
f 24//6 19//6 2//6
f 26//6 31//6 16//6
f 43//6 42//6 34//6
f 47//6 46//6 44//6
f 51//6 50//6 48//6
f 55//6 54//6 52//6
f 59//6 58//6 56//6
usemtl Barrier
f 22//8 3//8 5//8
f 28//9 14//9 29//9
f 21//10 5//10 4//10
f 15//11 28//11 30//11
f 30//12 26//12 11//12
f 2//13 23//13 6//13
f 23//14 4//14 6//14
f 14//15 27//15 29//15
f 29//16 20//16 22//16
f 28//17 22//17 21//17
f 30//18 21//18 23//18
f 26//19 23//19 19//19
f 1//1 6//1 4//1
f 13//2 10//2 12//2
f 33//5 38//5 36//5
f 63//13 35//13 37//13
f 62//14 37//14 36//14
f 64//10 36//10 38//10
f 38//8 48//8 50//8
f 61//1 63//1 62//1
f 22//8 20//8 3//8
f 28//9 13//9 14//9
f 21//10 22//10 5//10
f 15//11 13//11 28//11
f 10//12 15//12 11//12
f 15//12 30//12 11//12
f 6//13 1//13 2//13
f 2//13 19//13 23//13
f 23//14 21//14 4//14
f 14//15 12//15 27//15
f 29//16 27//16 20//16
f 28//17 29//17 22//17
f 30//18 28//18 21//18
f 26//19 30//19 23//19
f 4//1 5//1 3//1
f 3//1 1//1 4//1
f 12//2 14//2 13//2
f 13//2 15//2 10//2
f 36//5 37//5 35//5
f 35//5 33//5 36//5
f 63//13 61//13 35//13
f 62//14 63//14 37//14
f 64//10 62//10 36//10
f 38//8 33//8 34//8
f 38//8 34//8 42//8
f 60//8 64//8 58//8
f 64//8 38//8 50//8
f 58//8 64//8 56//8
f 54//8 56//8 64//8
f 54//8 64//8 52//8
f 38//8 42//8 44//8
f 44//8 46//8 38//8
f 46//8 48//8 38//8
f 50//8 52//8 64//8
f 62//1 64//1 60//1
f 60//1 61//1 62//1
usemtl EdgeWhite
f 7//6 1//6 8//6
f 17//6 11//6 16//6
f 24//6 26//6 19//6
f 39//6 33//6 40//6
f 45//6 42//6 43//6
f 49//6 46//6 47//6
f 53//6 50//6 51//6
f 57//6 54//6 55//6
f 65//6 58//6 59//6
f 7//6 2//6 1//6
f 17//6 10//6 11//6
f 24//6 31//6 26//6
f 39//6 34//6 33//6
f 45//6 44//6 42//6
f 49//6 48//6 46//6
f 53//6 52//6 50//6
f 57//6 56//6 54//6
f 65//6 60//6 58//6
