# Blender v2.81 (sub 16) OBJ File: 'road.blend'
# www.blender.org
mtllib turn.mtl
o Turn_Plane.004
v 5.566665 0.210000 10.000000
v 5.566665 0.210000 9.000000
v 6.566665 0.210000 10.000000
v 6.066665 0.942011 10.000000
v 6.450209 0.847746 10.000000
v 5.683121 0.847746 10.000000
v 5.179932 0.210000 9.000000
v 5.179932 0.210000 10.000000
v 6.566665 -0.000670 10.000000
v -5.566665 0.210000 10.000000
v -5.566665 0.210000 9.000000
v -6.566665 0.210000 10.000000
v -6.566665 0.210000 -5.000000
v -6.066665 0.942011 10.000000
v -6.066665 0.942011 -5.000000
v -6.450209 0.847746 10.000000
v -6.450209 0.847746 -5.000000
v -5.683121 0.847746 -5.000000
v -5.683121 0.847746 10.000000
v -5.179932 0.210000 9.000000
v -5.179932 0.210000 10.000000
v -6.566665 -0.000670 10.000000
v -6.566665 -0.000670 -5.000000
v 10.000000 0.210000 -5.566666
v 9.000000 0.210000 -5.566666
v 10.000000 0.210000 -6.566666
v -5.000000 0.210000 -6.566666
v 10.000000 0.942011 -6.066666
v -5.000000 0.942011 -6.066666
v 10.000000 0.847746 -6.450209
v -5.000000 0.847746 -6.450209
v -5.000000 0.847746 -5.683121
v 10.000000 0.847746 -5.683121
v 9.000000 0.210000 -5.179933
v 10.000000 0.210000 -5.179932
v 10.000000 -0.000670 -6.566666
v -5.000000 -0.000670 -6.566666
v 10.000001 0.210000 5.566664
v 9.000000 0.210000 5.566664
v 10.000001 0.210000 6.566664
v 10.000001 0.942011 6.066664
v 10.000000 0.847746 6.450208
v 10.000000 0.847746 5.683120
v 9.000000 0.210000 5.179932
v 10.000000 0.210000 5.179931
v 10.000001 -0.000670 6.566664
v 5.566665 0.210000 7.000000
v 6.566665 0.210000 7.000000
v 6.066665 0.942011 7.000000
v 6.450209 0.847746 7.000000
v 5.683121 0.847746 7.000000
v 5.179932 0.210000 7.000000
v 6.566665 -0.000670 7.000000
v -5.179932 0.210000 1.000000
v -5.179932 0.210000 3.000000
v -5.566665 0.210000 3.000000
v -5.566665 0.210000 5.000000
v -5.179932 0.210000 5.000000
v -5.179932 0.210000 7.000000
v -5.566665 0.210000 7.000000
v 7.000000 0.210000 -5.179933
v 7.000000 0.210000 -5.566666
v -5.179932 0.210000 -3.000000
v -5.566665 0.210000 -3.000000
v -5.566665 0.210000 -1.000000
v -5.179932 0.210000 -1.000000
v -5.566665 0.210000 1.000000
v 7.000000 0.210000 5.566664
v 7.000000 0.210000 6.566664
v 7.000000 0.942011 6.066664
v 7.000000 0.847746 6.450208
v 7.000000 0.847746 5.683120
v 7.000000 0.210000 5.179932
v 7.000000 -0.000670 6.566664
v 5.000000 0.210000 -5.179933
v 5.000000 0.210000 -5.566666
v 3.000000 0.210000 -5.179933
v 3.000000 0.210000 -5.566666
v 1.000000 0.210000 -5.179933
v 1.000000 0.210000 -5.566666
v -1.000000 0.210000 -5.179933
v -1.000000 0.210000 -5.566666
v -3.000000 0.210000 -5.179933
v -3.000000 0.210000 -5.566666
v -5.179932 0.210000 -5.000000
v -5.566665 0.210000 -5.000000
v -5.000000 0.210000 -5.179933
v -5.000000 0.210000 -5.566666
vn 0.0000 -1.0000 0.0000
vn -1.0000 0.0000 0.0000
vn 0.0000 0.0000 -1.0000
vn 0.0000 0.0000 1.0000
vn 1.0000 0.0000 0.0000
vn 0.7071 0.0000 0.7071
vn -0.7071 0.0000 -0.7071
vn 0.0000 1.0000 0.0000
vn 0.9837 0.1796 0.0000
vn 0.0000 0.9711 0.2387
vn 0.2387 0.9711 0.0000
vn 0.0000 0.9711 -0.2387
vn -0.2387 0.9711 0.0000
vn -0.9837 0.1796 0.0000
vn 0.0000 0.1796 -0.9837
vn 0.0000 0.1796 0.9837
vn 0.7013 0.1281 0.7013
vn 0.2322 0.9446 0.2322
vn -0.2322 0.9446 -0.2322
vn -0.7013 0.1281 -0.7013
usemtl Road
s off
f 36//1 74//1 37//1
f 23//2 12//2 13//2
f 26//3 37//3 27//3
f 69//4 46//4 40//4
f 9//5 48//5 3//5
f 53//6 69//6 48//6
f 13//7 37//7 23//7
f 35//5 45//5 46//5
f 8//4 21//4 22//4
f 20//8 21//8 8//8
f 44//8 45//8 35//8
f 83//8 85//8 63//8
f 22//1 53//1 9//1
f 53//1 37//1 74//1
f 36//1 46//1 74//1
f 23//2 22//2 12//2
f 26//3 36//3 37//3
f 69//4 74//4 46//4
f 9//5 53//5 48//5
f 53//6 74//6 69//6
f 13//7 27//7 37//7
f 26//5 24//5 36//5
f 24//5 35//5 36//5
f 45//5 38//5 46//5
f 38//5 40//5 46//5
f 36//5 35//5 46//5
f 3//4 1//4 9//4
f 1//4 8//4 9//4
f 21//4 10//4 22//4
f 10//4 12//4 22//4
f 9//4 8//4 22//4
f 8//8 7//8 20//8
f 7//8 52//8 20//8
f 52//8 59//8 20//8
f 35//8 34//8 44//8
f 34//8 61//8 44//8
f 61//8 73//8 44//8
f 55//8 58//8 52//8
f 58//8 59//8 52//8
f 55//8 52//8 54//8
f 52//8 73//8 54//8
f 73//8 61//8 75//8
f 77//8 79//8 73//8
f 79//8 81//8 66//8
f 73//8 79//8 54//8
f 73//8 75//8 77//8
f 63//8 66//8 81//8
f 66//8 54//8 79//8
f 83//8 87//8 85//8
f 81//8 83//8 63//8
f 22//1 23//1 53//1
f 53//1 23//1 37//1
usemtl EdgeRed
f 2//8 52//8 7//8
f 54//8 65//8 67//8
f 20//8 60//8 11//8
f 58//8 56//8 57//8
f 25//8 61//8 34//8
f 76//8 77//8 75//8
f 44//8 68//8 39//8
f 80//8 81//8 79//8
f 63//8 86//8 64//8
f 84//8 87//8 83//8
f 2//8 47//8 52//8
f 54//8 66//8 65//8
f 20//8 59//8 60//8
f 58//8 55//8 56//8
f 25//8 62//8 61//8
f 76//8 78//8 77//8
f 44//8 73//8 68//8
f 80//8 82//8 81//8
f 63//8 85//8 86//8
f 84//8 88//8 87//8
usemtl Barrier
f 3//9 50//9 5//9
f 42//10 70//10 71//10
f 5//11 49//11 4//11
f 70//12 43//12 72//12
f 17//13 14//13 15//13
f 13//14 16//14 17//14
f 15//11 19//11 18//11
f 28//12 31//12 29//12
f 30//15 27//15 31//15
f 33//10 29//10 32//10
f 39//15 68//15 72//15
f 51//14 47//14 2//14
f 4//13 51//13 6//13
f 69//16 42//16 71//16
f 48//17 71//17 50//17
f 50//18 70//18 49//18
f 51//19 70//19 72//19
f 51//20 68//20 47//20
f 78//16 76//16 33//16
f 67//9 18//9 56//9
f 86//17 32//17 18//17
f 18//18 29//18 15//18
f 17//19 29//19 31//19
f 13//20 31//20 27//20
f 4//4 1//4 3//4
f 10//4 19//4 14//4
f 38//5 43//5 41//5
f 28//5 33//5 24//5
f 3//9 48//9 50//9
f 42//10 41//10 70//10
f 5//11 50//11 49//11
f 70//12 41//12 43//12
f 17//13 16//13 14//13
f 13//14 12//14 16//14
f 15//11 14//11 19//11
f 28//12 30//12 31//12
f 30//15 26//15 27//15
f 33//10 28//10 29//10
f 72//15 43//15 39//15
f 43//15 38//15 39//15
f 2//14 1//14 6//14
f 6//14 51//14 2//14
f 4//13 49//13 51//13
f 69//16 40//16 42//16
f 48//17 69//17 71//17
f 50//18 71//18 70//18
f 51//19 49//19 70//19
f 51//20 72//20 68//20
f 24//16 33//16 25//16
f 33//16 32//16 78//16
f 25//16 33//16 62//16
f 32//16 88//16 84//16
f 82//16 80//16 32//16
f 80//16 78//16 32//16
f 32//16 84//16 82//16
f 62//16 33//16 76//16
f 19//9 10//9 11//9
f 60//9 57//9 19//9
f 57//9 56//9 19//9
f 19//9 11//9 60//9
f 86//9 18//9 64//9
f 18//9 19//9 56//9
f 64//9 18//9 65//9
f 67//9 65//9 18//9
f 86//17 88//17 32//17
f 18//18 32//18 29//18
f 17//19 15//19 29//19
f 13//20 17//20 31//20
f 3//4 5//4 4//4
f 4//4 6//4 1//4
f 14//4 16//4 12//4
f 12//4 10//4 14//4
f 41//5 42//5 40//5
f 40//5 38//5 41//5
f 24//5 26//5 28//5
f 26//5 30//5 28//5
usemtl EdgeWhite
f 1//8 7//8 8//8
f 20//8 10//8 21//8
f 24//8 34//8 35//8
f 45//8 39//8 38//8
f 55//8 67//8 56//8
f 59//8 57//8 60//8
f 66//8 64//8 65//8
f 62//8 75//8 61//8
f 47//8 73//8 52//8
f 78//8 79//8 77//8
f 82//8 83//8 81//8
f 86//8 87//8 88//8
f 1//8 2//8 7//8
f 20//8 11//8 10//8
f 24//8 25//8 34//8
f 45//8 44//8 39//8
f 55//8 54//8 67//8
f 59//8 58//8 57//8
f 66//8 63//8 64//8
f 62//8 76//8 75//8
f 47//8 68//8 73//8
f 78//8 80//8 79//8
f 82//8 84//8 83//8
f 86//8 85//8 87//8
