# Blender v2.81 (sub 16) OBJ File: 'wall_track.blend'
# www.blender.org
mtllib wall_track_middle.mtl
o WallMiddle
v -10.000003 5.000002 -9.999998
v 9.999997 5.000002 -9.999998
v -10.000003 5.000000 -9.790001
v 9.999997 5.000000 -9.790001
v -9.000002 5.000000 -9.790001
v 8.999997 5.000000 -9.790001
v 8.999997 0.000000 -9.790001
v -9.000002 0.000000 -9.790001
v 9.999997 0.000000 -9.790001
v -10.000003 0.000000 -9.790001
v 9.999997 0.000002 -9.999998
v -10.000003 0.000002 -9.999998
vn 0.0000 1.0000 0.0000
vn 0.0000 -1.0000 -0.0000
vn -1.0000 0.0000 0.0000
vn 0.0000 0.0000 1.0000
vn 1.0000 0.0000 0.0000
vn 0.0000 0.0000 -1.0000
usemtl Track
s off
f 1//1 5//1 6//1
f 8//2 10//2 12//2
f 12//3 3//3 1//3
f 8//4 6//4 5//4
f 4//5 11//5 2//5
f 4//1 2//1 6//1
f 2//1 1//1 6//1
f 1//1 3//1 5//1
f 12//2 11//2 7//2
f 11//2 9//2 7//2
f 7//2 8//2 12//2
f 12//3 10//3 3//3
f 8//4 7//4 6//4
f 4//5 9//5 11//5
usemtl Bottom
f 11//6 1//6 2//6
f 11//6 12//6 1//6
usemtl Sides
f 10//4 5//4 3//4
f 7//4 4//4 6//4
f 10//4 8//4 5//4
f 7//4 9//4 4//4
